<svg xmlns="http://www.w3.org/2000/svg" viewBox="0 0 1200 1200">
  <defs>
    <radialGradient id="bg" cx="50%" cy="42%" r="70%">
      <stop offset="0%" stop-color="#fff7ef"/>
      <stop offset="58%" stop-color="#ead7c7"/>
      <stop offset="100%" stop-color="#cda77f"/>
    </radialGradient>
    <linearGradient id="drop" x1="25%" y1="10%" x2="76%" y2="92%">
      <stop offset="0%" stop-color="#fffdf8"/>
      <stop offset="38%" stop-color="#f3dfcf"/>
      <stop offset="100%" stop-color="#b98b68"/>
    </linearGradient>
    <filter id="soft" x="-20%" y="-20%" width="140%" height="140%">
      <feGaussianBlur stdDeviation="18"/>
    </filter>
  </defs>
  <rect width="1200" height="1200" fill="url(#bg)"/>
  <circle cx="250" cy="260" r="150" fill="#fff8f0" opacity=".42" filter="url(#soft)"/>
  <circle cx="930" cy="860" r="220" fill="#b78ca0" opacity=".16" filter="url(#soft)"/>
  <path d="M610 188C472 380 354 522 354 702c0 170 114 292 256 292s256-122 256-292c0-180-118-322-256-514Z" fill="url(#drop)" opacity=".92"/>
  <path d="M520 370c-78 92-120 184-120 296 0 96 42 172 112 218" fill="none" stroke="#fffaf4" stroke-width="34" stroke-linecap="round" opacity=".42"/>
  <ellipse cx="712" cy="744" rx="84" ry="134" fill="#7c5d54" opacity=".12"/>
</svg>
